<?xml version="1.0" encoding="iso-8859-1"?>
<!-- Generator: Adobe Illustrator 19.0.0, SVG Export Plug-In . SVG Version: 6.00 Build 0)  -->
<svg xmlns="http://www.w3.org/2000/svg" xmlns:xlink="http://www.w3.org/1999/xlink" version="1.1" id="Capa_1" x="0px" y="0px" viewBox="0 0 512 512" style="enable-background:new 0 0 512 512;" xml:space="preserve" width="25px" height="25px">
<g>
	<g>
		<path d="M296.167,241h-33.2v-33.2c0-8.284-6.716-15-15-15s-15,6.716-15,15V256c0,8.284,6.716,15,15,15h48.2    c8.284,0,15-6.716,15-15S304.451,241,296.167,241z" fill="#ffffff"/>
	</g>
</g>
<g>
	<g>
		<path d="M408.633,208.867c-2.76,0-5.337,0.758-7.558,2.059c-9.877-33.49-30.457-62.436-57.774-82.848V15c0-8.284-6.716-15-15-15    H167.633c-8.284,0-15,6.716-15,15v113.078C113.65,157.205,88.367,203.705,88.367,256s25.283,98.795,64.266,127.922V497    c0,8.284,6.716,15,15,15h160.668c8.284,0,15-6.716,15-15V383.922c27.317-20.411,47.897-49.357,57.774-82.848    c2.221,1.301,4.798,2.059,7.558,2.059c8.284,0,15-6.716,15-15v-64.266C423.633,215.583,416.917,208.867,408.633,208.867z     M247.967,385.6c-71.461,0-129.6-58.138-129.6-129.6s58.139-129.6,129.6-129.6c71.462,0,129.6,58.138,129.6,129.6    S319.429,385.6,247.967,385.6z" fill="#ffffff"/>
	</g>
</g>
<g>
</g>
<g>
</g>
<g>
</g>
<g>
</g>
<g>
</g>
<g>
</g>
<g>
</g>
<g>
</g>
<g>
</g>
<g>
</g>
<g>
</g>
<g>
</g>
<g>
</g>
<g>
</g>
<g>
</g>
</svg>
